#!OML:ASF X:\für Bonn\!DataBase\2005_08_11_Bastian_Final\c3d\Bastian.ASF
:FULLY-SPECIFIED
:DEGREES
31
root 25.545 17.3328 -3.14026 1060.27 -81.3769 5.81664
lowerback 21.2947 -0.525103 -0.259383
upperback 14.7641 -2.04538 2.66706
thorax 4.3925 -1.74817 3.31414
lowerneck -2.90497 -4.25549 -6.09152
upperneck 12.0103 -5.92694 4.22949
head 4.37507 -3.01273 2.00186
rclavicle 7.95139e-015 -8.74653e-015
rhumerus -2.23185 14.1124 -76.4749
rradius 23.9187
rwrist -5.27933
rhand -19.4525 -2.70755
rfingers 7.12502
rthumb 6.86838 -32.5761
lclavicle 7.95139e-015 -8.74653e-015
lhumerus -10.094 -17.8523 -272.979
lradius 43.7215
lwrist -333.635
lhand -14.2049 -11.6276
lfingers 7.12502
lthumb 11.9315 18.0124
rfemur -20.2522 3.28979 16.8301
rtibia 33.7288
rfoot -13.617 -10.4826
rtoes -8.20959
lfemur 8.9981 2.23934 -23.5677
ltibia 25.3718
lfoot -9.08388 -12.3218
ltoes -1.50639
32
root 25.4424 17.3235 -3.13966 1060.17 -81.0264 5.76944
lowerback 21.9186 -0.501818 -0.0873333
upperback 14.9883 -2.02973 2.79698
thorax 4.34524 -1.75571 3.37228
lowerneck -2.87688 -4.37598 -6.13408
upperneck 11.5756 -6.06979 4.29377
head 4.24895 -3.07633 2.02471
rclavicle 1.78906e-014 -4.53229e-014
rhumerus -1.53355 13.8958 -76.1109
rradius 23.7518
rwrist -5.07553
rhand -19.5891 -2.71494
rfingers 7.12502
rthumb 6.73652 -32.5878
lclavicle 1.78906e-014 -4.53229e-014
lhumerus -9.70468 -18.3216 -273.106
lradius 44.6655
lwrist -333.604
lhand -14.3659 -11.819
lfingers 7.12502
lthumb 11.7762 17.8299
rfemur -20.1513 4.18416 16.6752
rtibia 32.5227
rfoot -14.3257 -11.6161
rtoes -8.10492
lfemur 9.2428 2.18769 -23.5234
ltibia 25.9099
lfoot -9.40933 -12.6492
ltoes -1.93097
33
root 25.3413 17.3089 -3.14019 1060.03 -80.6616 5.72941
lowerback 22.5898 -0.485787 0.0825156
upperback 15.2408 -2.0281 2.93752
thorax 4.31313 -1.77436 3.44712
lowerneck -2.9686 -4.50559 -6.16494
upperneck 11.2233 -6.21253 4.27416
head 4.16548 -3.14235 2.01671
rclavicle 4.09496e-014 -1.27222e-014
rhumerus -0.812047 13.7593 -75.7054
rradius 23.6147
rwrist -4.87705
rhand -19.748 -2.70205
rfingers 7.12502
rthumb 6.58307 -32.5797
lclavicle 4.09496e-014 -1.27222e-014
lhumerus -9.31531 -18.6912 -273.205
lradius 45.5591
lwrist -333.531
lhand -14.5059 -12.134
lfingers 7.12502
lthumb 11.6413 17.5226
rfemur -20.0309 5.21826 16.5023
rtibia 31.5688
rfoot -15.089 -12.778
rtoes -7.82789
lfemur 9.45031 2.17023 -23.4677
ltibia 26.5735
lfoot -9.76479 -13.0362
ltoes -2.54792
34
root 25.2426 17.2864 -3.14049 1060 -80.3095 5.58443
lowerback 23.2958 -0.484136 0.289754
upperback 15.4711 -2.03395 3.07902
thorax 4.24234 -1.7931 3.50568
lowerneck -3.07891 -4.61654 -6.19176
upperneck 10.9405 -6.33147 4.23579
head 4.10428 -3.19803 2.00268
rclavicle 8.34896e-015 -4.6118e-014
rhumerus -0.0851932 13.5383 -75.3241
rradius 23.4367
rwrist -4.66369
rhand -19.7996 -2.65059
rfingers 7.12502
rthumb 6.53328 -32.5298
lclavicle 8.34896e-015 -4.6118e-014
lhumerus -9.00329 -19.0511 -273.29
lradius 46.3855
lwrist -333.321
lhand -14.6448 -12.5956
lfingers 7.12502
lthumb 11.5073 17.0685
rfemur -19.8965 6.03813 16.3909
rtibia 30.8343
rfoot -15.8196 -13.6707
rtoes -7.71352
lfemur 9.55979 2.16574 -23.3887
ltibia 27.3956
lfoot -10.1894 -13.4408
ltoes -3.01883
